<?xml version="1.0" encoding="utf-8"?>
<!-- Generator: Adobe Illustrator 15.1.0, SVG Export Plug-In . SVG Version: 6.00 Build 0)  -->
<!DOCTYPE svg PUBLIC "-//W3C//DTD SVG 1.1//EN" "http://www.w3.org/Graphics/SVG/1.1/DTD/svg11.dtd">
<svg version="1.1" id="Layer_1" xmlns="http://www.w3.org/2000/svg" xmlns:xlink="http://www.w3.org/1999/xlink" x="0px" y="0px"
	 width="60px" height="60px" viewBox="-10.188 -10.438 60 60" enable-background="new -10.188 -10.438 60 60" xml:space="preserve">
<g>
	<path fill="#85868B" d="M19.813-0.938c-11.322,0-20.5,9.178-20.5,20.5c0,11.322,9.178,20.5,20.5,20.5
		c5.939,0,11.29-2.526,15.034-6.563c0.513-0.554,0.996-1.135,1.445-1.741c2.526-3.408,4.021-7.627,4.021-12.195
		C40.313,8.241,31.135-0.938,19.813-0.938z M35.156,29.813c-2.477-3.699-6.255-6.453-10.679-7.605
		c2.136-1.48,3.535-3.949,3.535-6.745c0-4.529-3.671-8.2-8.2-8.2c-4.529,0-8.2,3.671-8.2,8.2c0,2.796,1.399,5.264,3.535,6.745
		c-4.424,1.152-8.202,3.906-10.678,7.605c-1.962-2.932-3.107-6.457-3.107-10.25c0-10.189,8.261-18.45,18.45-18.45
		s18.449,8.261,18.449,18.45C38.262,23.355,37.117,26.881,35.156,29.813z"/>
</g>
</svg>
