<svg xmlns="http://www.w3.org/2000/svg" width="200" height="200" style=""><rect id="backgroundrect" width="100%" height="100%" x="0" y="0" fill="none" stroke="none" class="" style=""/><!--! Font Awesome Pro 6.4.0 by @fontawesome - https://fontawesome.com License - https://fontawesome.com/license (Commercial License) Copyright 2023 Fonticons, Inc. --><g class="currentLayer" style=""><title>Layer 1</title><path d="M64.65586598217487,36.78392970561981 L61.21733470261097,47.09952354431152 H36.51942253112793 C24.84825386106968,47.09952354431152 15.359230041503906,56.5885473638773 15.359230041503906,68.25971603393555 V152.90048599243164 c0,11.671168670058249 9.489023819565773,21.160192489624023 21.160192489624023,21.160192489624023 H163.48057746887207 c11.671168670058249,0 21.160192489624023,-9.489023819565773 21.160192489624023,-21.160192489624023 V68.25971603393555 c0,-11.671168670058249 -9.489023819565773,-21.160192489624023 -21.160192489624023,-21.160192489624023 H138.78266529738903 L135.34413401782513,36.78392970561981 C133.1950519680977,30.303620755672455 127.14455942809582,25.9393310546875 120.30055966973305,25.9393310546875 H79.69944033026695 c-6.84399975836277,0 -12.89449229836464,4.364289700984955 -15.04357434809208,10.84459865093231 zM100,78.83981227874756 a31.740288734436035,31.740288734436035 0 1 1 0,63.48057746887207 a31.740288734436035,31.740288734436035 0 1 1 0,-63.48057746887207 z" fill="#18191c" id="svg_1" class="selected" opacity="0.85"/></g></svg>